<?xml version="1.0" encoding="UTF-8"?>
<svg version="1.1" xmlns="http://www.w3.org/2000/svg" width="512" height="512">
<path d="M0 0 C4.08688959 1.36229653 4.3903321 3.10007991 6.3359375 6.89453125 C6.8095018 7.81050331 6.8095018 7.81050331 7.29263306 8.74497986 C8.33089284 10.76215717 9.35354935 12.78676494 10.375 14.8125 C11.0922825 16.21981088 11.80973229 17.62703652 12.52734375 19.03417969 C22.1785162 38.04703806 31.19071674 57.37868177 39.23046875 77.13037109 C39.93486319 78.84174567 40.66908891 80.54076306 41.40625 82.23828125 C41.7878125 83.12902344 42.169375 84.01976563 42.5625 84.9375 C42.87316406 85.64777344 43.18382812 86.35804687 43.50390625 87.08984375 C44.10759211 89.414272 43.807701 90.76068525 43 93 C42 94 42 94 39.33203125 94.1328125 C29.18766696 94.11029449 18.9633044 94.07230832 9 92 C9.25305908 93.05199585 9.25305908 93.05199585 9.51123047 94.12524414 C11.75243876 103.62230815 13.68880246 113.17088685 15.58935547 122.7409668 C16.1289374 125.45732161 16.67166733 128.17303378 17.21484375 130.88867188 C17.56268254 132.6327761 17.91034519 134.37691548 18.2578125 136.12109375 C18.49843918 137.32589638 18.49843918 137.32589638 18.743927 138.55503845 C19.56474898 142.69396524 20.33339495 146.83267815 21 151 C22.175625 151.061875 23.35125 151.12375 24.5625 151.1875 C36.00426526 152.52833187 46.04198411 156.94970777 55.45727539 163.40429688 C57.54794941 164.81333819 57.54794941 164.81333819 61 166 C64.63529889 164.90049917 67.31292978 162.51994503 70.3125 160.25 C72 159 72 159 74 159 C74 158.34 74 157.68 74 157 C79.41176471 153 79.41176471 153 82 153 C82 152.34 82 151.68 82 151 C84.0944968 149.36570249 86.17782091 147.85832766 88.375 146.375 C88.97828125 145.95476562 89.5815625 145.53453125 90.203125 145.1015625 C94.73462865 142 94.73462865 142 97 142 C97 141.34 97 140.68 97 140 C98.90374355 138.55036041 100.87467159 137.18815677 102.875 135.875 C103.96554687 135.15054688 105.05609375 134.42609375 106.1796875 133.6796875 C109 132 109 132 111 132 C110.51345756 136.80235409 108.19350056 139.93858566 105.375 143.6875 C104.45541236 144.94247625 103.53614258 146.19768548 102.6171875 147.453125 C101.94187988 148.36674805 101.94187988 148.36674805 101.25292969 149.29882812 C95.27031703 157.42175194 89.67770339 165.8365636 84.15869141 174.27929688 C83.04101893 175.93908524 81.83987597 177.54171854 80.63671875 179.140625 C78.7950992 181.79955049 78.7950992 181.79955049 79.0234375 184.41015625 C80.32907402 187.87270431 81.95623292 191.14082884 83.625 194.4375 C88.59920184 204.56630926 91.81739067 215.19992374 95 226 C100.35244831 227.10433338 105.70524329 228.20696609 111.05834961 229.30810547 C112.87484931 229.68200072 114.69125771 230.0563398 116.50756836 230.43115234 C130.72366892 233.37120076 130.72366892 233.37120076 145 236 C145.0143811 234.80636841 145.0143811 234.80636841 145.02905273 233.58862305 C145.05192057 231.69059245 145.07478841 229.79256185 145.09765625 227.89453125 C145.08683162 225.07709154 145.08683162 225.07709154 144.5078125 222.6796875 C143.78893681 218.88623577 143.81576735 215.16471021 143.8125 211.3125 C143.80025391 210.54099609 143.78800781 209.76949219 143.77539062 208.97460938 C143.77016896 206.98167293 143.8773659 204.98916662 144 203 C144.66 202.34 145.32 201.68 146 201 C150.09210979 201.3512005 153.45592935 202.44688793 157.16796875 204.15234375 C158.13428223 204.59416992 159.1005957 205.03599609 160.09619141 205.49121094 C161.11632324 205.96848633 162.13645508 206.44576172 163.1875 206.9375 C164.24888184 207.42895508 165.31026367 207.92041016 166.40380859 208.42675781 C175.39907724 212.63237299 184.17166939 217.19600984 192.91601562 221.89501953 C196.04080783 223.55186226 199.2045212 225.11971919 202.375 226.6875 C211.29023239 231.11401655 220.03045754 235.83849558 228.6875 240.75 C229.66074219 241.30171875 230.63398438 241.8534375 231.63671875 242.421875 C234 244 234 244 236 247 C222.78758179 255.80827881 207.72640466 262.47120854 193.0625 268.4375 C187.35762746 270.77815351 181.89186713 273.50771647 176.3984375 276.296875 C172.44169602 278.27979372 168.44261558 280.13684014 164.3984375 281.93359375 C162.91530859 282.59303055 161.43944845 283.26945432 159.9765625 283.97265625 C156.19381735 285.74839906 153.1668773 286.75761406 149 286 C145.15562022 281.52102164 145.48816621 276.54326906 145.375 270.9375 C145.32381103 269.15484402 145.26924772 267.37228101 145.2109375 265.58984375 C145.19337402 264.80472412 145.17581055 264.01960449 145.15771484 263.21069336 C145.00228167 261.03198223 144.59592863 259.09710692 144 257 C122.7174525 261.53149782 122.7174525 261.53149782 102 268 C100.84371094 268.34675781 99.68742187 268.69351562 98.49609375 269.05078125 C95.37725357 270.40995645 94.27715682 271.76580075 92.8828125 274.8515625 C92.2741379 276.43414996 91.68935545 278.026072 91.125 279.625 C88.20044851 287.28401409 84.84951031 294.40161418 80.70556641 301.47900391 C79.13385146 304.27094744 77.99818521 306.38841667 78.0078125 309.6328125 C79.27210334 312.64919143 80.92187674 314.92113579 82.9375 317.5 C83.33936523 318.02062012 83.74123047 318.54124023 84.15527344 319.07763672 C85.42876117 320.72489753 86.71362307 322.362793 88 324 C93.79106253 331.44701926 99.4942305 338.94702763 105.0625 346.5625 C105.63516602 347.33674316 106.20783203 348.11098633 106.79785156 348.90869141 C107.32991211 349.6413623 107.86197266 350.3740332 108.41015625 351.12890625 C108.88590088 351.77931885 109.36164551 352.42973145 109.85180664 353.09985352 C111.04256158 355.0704352 111.56726755 356.75010368 112 359 C106.80338175 358.54374929 104.05129997 356.91060454 100 353.6875 C96.93477202 351.27283473 93.92068595 348.91794516 90.625 346.83203125 C89.75875 346.22746094 88.8925 345.62289063 88 345 C88 344.34 88 343.68 88 343 C87.236875 342.71125 86.47375 342.4225 85.6875 342.125 C83 341 83 341 80 339 C80 338.34 80 337.68 80 337 C79.319375 336.76667969 78.63875 336.53335937 77.9375 336.29296875 C73.65611995 334.40847833 69.97649997 331.7167441 66.171875 329.01367188 C63.42675191 327.16071379 61.64074576 325.97705065 58.2734375 326.09765625 C55.46611605 327.21190239 53.08276022 328.82732606 50.55859375 330.46875 C47.35848203 332.38393136 44.05409273 334.02865816 40.6875 335.625 C39.71647339 336.08990845 39.71647339 336.08990845 38.72583008 336.56420898 C34.76046271 338.39342497 31.14289019 339.4502888 26.8125 340.1875 C24.30314853 340.72528452 24.30314853 340.72528452 22 342 C20.68235503 344.2400377 20.68235503 344.2400377 19.95703125 347.0546875 C19.63468506 348.1367749 19.31233887 349.2188623 18.98022461 350.33374023 C17.34780119 356.43936973 15.8160863 362.56039046 14.39013672 368.7175293 C13.87609693 370.93277278 13.35078102 373.1451256 12.82421875 375.35742188 C10.82082126 383.86848309 9.16437957 392.32754242 8 401 C15.30029301 401.347633 21.90201707 400.45628816 29.02124023 398.97924805 C33.05847528 398.17941408 36.01880956 398.0573016 40 399 C37.10806191 410.06411397 32.47714901 419.94258976 27.5 430.1875 C26.28072088 432.72262932 25.06463615 435.25927471 23.84872437 437.79602051 C23.04068954 439.48132768 22.23163411 441.16614592 21.42153931 442.85046387 C17.99110581 449.98898512 14.66602551 457.17123239 11.375 464.375 C7.10910768 473.68563481 2.67187422 482.88664536 -2 492 C-2.33 492.66 -2.66 493.32 -3 494 C-5.93498007 493.70327674 -6.85074843 493.18149523 -8.75390625 490.8671875 C-14.81863961 480.83352496 -19.74082733 470.31682201 -24.71435547 459.70898438 C-26.43400939 456.08549786 -28.24020403 452.51011616 -30.0625 448.9375 C-35.04173042 439.11637937 -39.52215466 429.05727586 -44 419 C-44.31267822 418.310271 -44.62535645 417.62054199 -44.94750977 416.90991211 C-46.65914767 413.06517772 -47.49287255 410.23870389 -47 406 C-44.40442502 403.40442502 -42.5994202 403.73877604 -39.06054688 403.7265625 C-38.27744141 403.73429687 -37.49433594 403.74203125 -36.6875 403.75 C-35.94693359 403.74226563 -35.20636719 403.73453125 -34.44335938 403.7265625 C-27.51818974 403.75001777 -20.81421982 404.83294938 -14 406 C-16.18103633 389.35218507 -19.09380809 373.01839825 -22.71313477 356.63110352 C-22.86414139 355.9443605 -23.01514801 355.25761749 -23.17073059 354.55006409 C-23.58352291 352.67963975 -24.00202088 350.81047722 -24.42089844 348.94140625 C-25 346 -25 346 -25 343 C-27.58959074 341.68021136 -30.19253114 340.46336916 -32.87109375 339.3359375 C-42.4528542 335.2363835 -51.31017898 330.77274329 -60 325 C-66.12005705 328.94094583 -71.95525462 333.1816972 -77.7578125 337.57421875 C-81.73368545 340.56768831 -85.78757515 343.44951293 -89.84716797 346.32788086 C-93.53647461 348.94535652 -97.18133702 351.61448505 -100.8125 354.3125 C-105.34261929 357.6260739 -110.01002258 360.43724617 -115 363 C-114.45163179 358.7577626 -113.02600314 356.23399195 -110.5 352.8125 C-108.0504742 349.52749532 -108.0504742 349.52749532 -106 346 C-105.34 346 -104.68 346 -104 346 C-103.7628125 345.31550781 -103.525625 344.63101562 -103.28125 343.92578125 C-101.73491106 340.39465972 -99.69619934 337.33445017 -97.5 334.1875 C-97.09652344 333.59001953 -96.69304687 332.99253906 -96.27734375 332.37695312 C-95.23960218 330.87856389 -94.12524203 329.43384386 -93 328 C-92.34 328 -91.68 328 -91 328 C-90.79375 327.34 -90.5875 326.68 -90.375 326 C-88.82652942 322.62151874 -86.86299172 319.99799421 -84.59765625 317.0703125 C-82.31107505 314.10726107 -80.16318807 311.05391257 -78 308 C-78.57878906 307.00355469 -79.15757812 306.00710938 -79.75390625 304.98046875 C-81.94048666 301.15082659 -83.96429249 297.25553045 -85.9375 293.3125 C-86.2888501 292.6213208 -86.6402002 291.9301416 -87.00219727 291.21801758 C-89.13925256 286.95227217 -90.8575406 282.69696746 -92.4375 278.1875 C-93.93248086 274.48783255 -93.93248086 274.48783255 -96.671875 271.73828125 C-99.1068624 270.84639633 -101.43888559 270.42853957 -104 270 C-105.35454417 269.70687541 -106.70728445 269.40534947 -108.05859375 269.09765625 C-111.15514142 268.39292936 -114.2551469 267.70911565 -117.359375 267.0390625 C-122.68178717 265.87024494 -127.92586656 264.47431807 -133.1796875 263.02734375 C-138.43462354 261.61420655 -143.72084593 260.31978852 -149 259 C-149 270.22 -149 281.44 -149 293 C-153.86553048 294.21638262 -156.12243353 292.97087445 -160.4375 290.9375 C-161.20102783 290.58751953 -161.96455566 290.23753906 -162.7512207 289.87695312 C-165.50936783 288.60219049 -168.25524792 287.30335648 -171 286 C-172.13501953 285.46262207 -173.27003906 284.92524414 -174.43945312 284.37158203 C-186.97162889 278.42707514 -199.48262585 272.45254802 -211.65625 265.796875 C-215.49944095 263.73160883 -219.39885411 261.80206051 -223.3125 259.875 C-237.56435419 252.79972098 -237.56435419 252.79972098 -241 250 C-241 249.01 -241 248.02 -241 247 C-234.64771616 241.8706251 -226.56913868 238.93728486 -219.0625 235.9375 C-211.28959143 232.78954663 -203.61570749 229.51100576 -196 226 C-191.42199307 223.9091284 -186.83864495 221.82997675 -182.25512695 219.7512207 C-180.8672648 219.12111916 -179.47990084 218.48991924 -178.09301758 217.85766602 C-176.05677244 216.92962695 -174.01880615 216.00546417 -171.98046875 215.08203125 C-170.78317139 214.53780518 -169.58587402 213.9935791 -168.35229492 213.43286133 C-158.58233819 209.25691813 -158.58233819 209.25691813 -154 210 C-150.57106168 213.5514004 -149.88699082 217.09235917 -149.68359375 221.88671875 C-149.64169922 222.82451172 -149.59980469 223.76230469 -149.55664062 224.72851562 C-149.51732422 225.70498047 -149.47800781 226.68144531 -149.4375 227.6875 C-149.39431641 228.67556641 -149.35113281 229.66363281 -149.30664062 230.68164062 C-149.20058346 233.12095546 -149.09852286 235.56037113 -149 238 C-127.90381519 232.85819741 -127.90381519 232.85819741 -107 227 C-106.1028125 226.77054688 -105.205625 226.54109375 -104.28125 226.3046875 C-103.05921875 225.96824219 -103.05921875 225.96824219 -101.8125 225.625 C-101.13832031 225.45226562 -100.46414062 225.27953125 -99.76953125 225.1015625 C-95.16385975 222.23445574 -93.89728935 215.01403459 -92.25 210.0625 C-89.99865329 203.41822847 -87.35908044 197.12430072 -84.09667969 190.91040039 C-82.79037878 188.31202924 -81.99223159 186.36456046 -82.0546875 183.43359375 C-83.27375121 180.29526031 -85.00466672 177.97280299 -87.0625 175.3125 C-91 170.19859402 -91 170.19859402 -91 168 C-91.66 168 -92.32 168 -93 168 C-94.59433816 165.96840865 -96.05787606 163.94804137 -97.5 161.8125 C-97.90347656 161.23435547 -98.30695313 160.65621094 -98.72265625 160.06054688 C-100.9405117 156.82159955 -102.71383072 153.71171677 -104 150 C-104.66 150 -105.32 150 -106 150 C-107.63863397 147.56866946 -109.14921334 145.15228465 -110.625 142.625 C-111.04523438 141.92632812 -111.46546875 141.22765625 -111.8984375 140.5078125 C-115 135.27140828 -115 135.27140828 -115 133 C-111.92625468 133.59410638 -110.03978007 134.50017289 -107.6171875 136.46875 C-107.00746094 136.95730469 -106.39773437 137.44585937 -105.76953125 137.94921875 C-104.83173828 138.71685547 -104.83173828 138.71685547 -103.875 139.5 C-99.65801714 143.0812223 -99.65801714 143.0812223 -95 146 C-95 146.66 -95 147.32 -95 148 C-94.21625 148.309375 -93.4325 148.61875 -92.625 148.9375 C-90 150 -90 150 -88 151 C-88 151.66 -88 152.32 -88 153 C-87.3503125 153.20238281 -86.700625 153.40476563 -86.03125 153.61328125 C-80.94466444 155.94026305 -76.66502312 159.52914464 -72.23828125 162.91992188 C-71.14580078 163.72333008 -71.14580078 163.72333008 -70.03125 164.54296875 C-69.04995117 165.2858313 -69.04995117 165.2858313 -68.04882812 166.04370117 C-65.3026586 167.32548692 -63.85263027 166.88299104 -61 166 C-58.86135399 164.85379756 -56.76015727 163.63661747 -54.6875 162.375 C-44.532507 156.37549937 -33.73662342 150.88624305 -22 149 C-21.89042969 148.24356201 -21.78085938 147.48712402 -21.66796875 146.70776367 C-20.35076241 137.86012618 -18.72539321 129.08750904 -17 120.3125 C-16.73674959 118.96293539 -16.47372801 117.61332612 -16.2109375 116.26367188 C-14.828076 109.17163287 -13.42613093 102.0834665 -12 95 C-13.15757812 95.27714844 -14.31515625 95.55429688 -15.5078125 95.83984375 C-17.04684999 96.20583437 -18.58591389 96.57171391 -20.125 96.9375 C-20.88554687 97.11990234 -21.64609375 97.30230469 -22.4296875 97.49023438 C-28.61510931 98.95660593 -34.48398854 100.14043916 -40.875 100.0625 C-42.32519531 100.04896484 -42.32519531 100.04896484 -43.8046875 100.03515625 C-44.52914062 100.02355469 -45.25359375 100.01195313 -46 100 C-47.31668795 95.60552262 -46.64702749 93.33929628 -44.74609375 89.22265625 C-44.22829346 88.08425293 -43.71049316 86.94584961 -43.17700195 85.77294922 C-42.59758481 84.53593748 -42.01773909 83.29912641 -41.4375 82.0625 C-40.8442414 80.77408544 -40.2520558 79.48517632 -39.66088867 78.19580078 C-38.41906907 75.49437722 -37.16857344 72.79721428 -35.91113281 70.10302734 C-34.34871797 66.75447065 -32.80299896 63.39858997 -31.26403809 60.03919983 C-24.58948082 45.47352528 -17.74310093 31.035173 -10 17 C-9.57783203 16.23365234 -9.15566406 15.46730469 -8.72070312 14.67773438 C-1.35745818 1.35745818 -1.35745818 1.35745818 0 0 Z M0 21 C-18.23483755 52.34160183 -18.23483755 52.34160183 -28 86 C-22.11961516 85.40647394 -22.11961516 85.40647394 -16.28125 84.50585938 C-6.70650749 82.77358688 2.62609793 82.76959413 12.3125 82.875 C13.93944755 82.88505991 15.5664012 82.89418039 17.19335938 82.90234375 C21.12906025 82.92409573 25.06446034 82.95845553 29 83 C28.33372203 77.47594337 28.33372203 77.47594337 26.58203125 72.23828125 C26.30045166 71.60083984 26.01887207 70.96339844 25.72875977 70.30664062 C25.42639404 69.64857422 25.12402832 68.99050781 24.8125 68.3125 C24.34058228 67.2615918 24.34058228 67.2615918 23.85913086 66.18945312 C21.07432444 60.03999403 18.06958406 54.01158149 15 48 C14.35123491 46.69742499 13.70419999 45.39398729 13.05859375 44.08984375 C9.19961372 36.30009727 5.24485384 28.58928414 1 21 C0.67 21 0.34 21 0 21 Z M-4 116 C-6.99053359 127.99554814 -9.41015525 140.06516264 -11.70703125 152.2109375 C-12.96532499 158.85877947 -14.28926992 165.49235693 -15.625 172.125 C-16.03788488 174.19919398 -16.45064941 176.27341192 -16.86328125 178.34765625 C-17.54340869 181.75738454 -18.24472832 185.16046412 -18.98046875 188.55859375 C-22.25742785 203.55197803 -22.25742785 203.55197803 -20.0390625 218.46484375 C-18.54073665 220.65170663 -16.9842769 222.23914359 -15 224 C-14.11828125 224.81597656 -13.2365625 225.63195312 -12.328125 226.47265625 C-7.44383393 231.08077525 -7.44383393 231.08077525 -1.37109375 233.4375 C1.50024966 232.90769693 2.41884486 232.13745732 4.375 230 C4.96796875 229.36191406 5.5609375 228.72382813 6.171875 228.06640625 C6.77515625 227.38449219 7.3784375 226.70257813 8 226 C8.60328125 225.32839844 9.2065625 224.65679687 9.828125 223.96484375 C11.57468929 221.9942636 13.29625341 220.007719 15 218 C15.87495117 217.14132324 16.74990234 216.28264648 17.65136719 215.39794922 C19.97711958 212.58348183 20.00007213 211.99703341 20.09619141 208.04370117 C19.87782737 206.53882322 19.62763375 205.03833665 19.3515625 203.54296875 C19.2249826 202.73133774 19.09840271 201.91970673 18.96798706 201.08348083 C18.548773 198.4459427 18.08805662 195.81766397 17.625 193.1875 C17.32420681 191.36344145 17.0253891 189.53905607 16.72851562 187.71435547 C15.86354563 182.46804049 14.94271104 177.23284516 14 172 C13.76893555 170.71206543 13.53787109 169.42413086 13.29980469 168.09716797 C10.40109383 152.28664032 6.7046458 136.63778762 3 121 C2.67 121 2.34 121 2 121 C1.99191315 122.26676071 1.98382629 123.53352142 1.97549438 124.83866882 C1.89803689 136.7719952 1.81029843 148.70520751 1.71247292 160.63838482 C1.6625099 166.77346723 1.61617968 172.90853242 1.578125 179.04370117 C1.54127254 184.96357286 1.49491235 190.88330049 1.44193649 196.80304909 C1.42339241 199.06246223 1.40828451 201.32190626 1.39665604 203.58136559 C1.37979411 206.74409132 1.35075858 209.9064871 1.31884766 213.0690918 C1.31668747 214.00489075 1.31452728 214.9406897 1.31230164 215.90484619 C1.25469506 220.36908265 1.1136846 223.94694478 -1 228 C-1.8557469 222.61431538 -2.29712578 217.29197141 -2.55639648 211.84667969 C-2.59857772 210.9750053 -2.64075895 210.10333092 -2.68421841 209.20524216 C-3.11222293 199.62061693 -3.12643987 190.04535371 -3.09765625 180.453125 C-3.09578392 178.57598916 -3.09436389 176.69885282 -3.09336853 174.82171631 C-3.08960737 169.95577571 -3.0798344 165.08986646 -3.06866455 160.22393799 C-3.05831018 155.22872339 -3.05384132 150.23350356 -3.04882812 145.23828125 C-3.03820421 135.49217396 -3.02120806 125.74608962 -3 116 C-3.33 116 -3.66 116 -4 116 Z M25 163 C25.49008928 172.96514869 27.48830384 184.97660768 32 194 C36.5891434 192.55480014 39.63352964 189.93531721 43.0625 186.6875 C43.57876953 186.21376953 44.09503906 185.74003906 44.62695312 185.25195312 C47.72251282 182.36933639 50.43382399 179.37849072 53 176 C47.12377174 172.38756459 41.25370045 168.91925851 35 166 C34.35804688 165.69964844 33.71609375 165.39929688 33.0546875 165.08984375 C30.19065168 163.8016268 28.1761336 163 25 163 Z M-52.3203125 176.1875 C-53.15175781 177.0846875 -53.15175781 177.0846875 -54 178 C-44.73173476 187.86298447 -44.73173476 187.86298447 -34 196 C-33.01 195.67 -32.02 195.34 -31 195 C-30.15708214 190.96027133 -29.32737135 186.91793891 -28.5 182.875 C-28.26152344 181.73289063 -28.02304688 180.59078125 -27.77734375 179.4140625 C-27.55175781 178.30546875 -27.32617188 177.196875 -27.09375 176.0546875 C-26.88427734 175.03874512 -26.67480469 174.02280273 -26.45898438 172.97607422 C-25.99011018 169.93587401 -25.9199213 167.07101806 -26 164 C-34.65070129 164 -46.1510811 170.37138959 -52.3203125 176.1875 Z M-72 194 C-78.27524589 205.01780288 -78.27524589 205.01780288 -81 217 C-73.32083054 216.61604153 -66.83496496 214.56172687 -60 211 C-59.67 210.34 -59.34 209.68 -59 209 C-64.67194894 201.23199954 -64.67194894 201.23199954 -71 194 C-71.33 194 -71.66 194 -72 194 Z M68 195 C66.00713805 197.05829921 64.05762399 199.13633395 62.125 201.25 C61.58230469 201.83652344 61.03960937 202.42304688 60.48046875 203.02734375 C58.97013015 204.67062169 57.48126297 206.330522 56 208 C55.35804688 208.71671875 54.71609375 209.4334375 54.0546875 210.171875 C52.85053623 211.95038099 52.85053623 211.95038099 52.85546875 214.08203125 C54.73325471 217.22876471 57.97283683 217.71590482 61.3125 218.6875 C61.98990234 218.89955078 62.66730469 219.11160156 63.36523438 219.33007812 C69.23380001 221.14858771 73.83544436 222.11854915 80 222 C79.27040712 217.49058859 77.78200838 213.32375439 76.1875 209.0625 C75.93935547 208.37220703 75.69121094 207.68191406 75.43554688 206.97070312 C73.77827008 202.5217794 71.84502005 198.81125328 69 195 C68.67 195 68.34 195 68 195 Z M47 201 C46.34 201.66 45.68 202.32 45 203 C45 204.32 45 205.64 45 207 C45.66 207 46.32 207 47 207 C47.33 205.02 47.66 203.04 48 201 C47.67 201 47.34 201 47 201 Z M157 218 C157 235.82 157 253.64 157 272 C167.69007249 267.84691389 167.69007249 267.84691389 177.78222656 263.09033203 C180.89327715 261.5608349 184.08198374 260.22168667 187.2734375 258.87109375 C187.92838196 258.59278717 188.58332642 258.31448059 189.25811768 258.02774048 C191.99348563 256.86648527 194.7296509 255.70741016 197.47119141 254.56079102 C199.49215614 253.71401676 201.50804393 252.85602757 203.5234375 251.99609375 C204.71888184 251.49263428 205.91432617 250.9891748 207.14599609 250.47045898 C210.23737605 249.16999285 210.23737605 249.16999285 212 246 C206.6379659 241.90390068 201.18409009 238.99504969 195.0625 236.1875 C193.19078653 235.31382644 191.31969848 234.43881182 189.44921875 233.5625 C188.52802246 233.13195312 187.60682617 232.70140625 186.65771484 232.2578125 C181.66877566 229.89670514 176.75483039 227.38959913 171.8359375 224.88671875 C166.94356182 222.48038733 161.96344049 220.25610931 157 218 Z M-50.40625 223.59765625 C-51.47575394 223.88124496 -51.47575394 223.88124496 -52.56686401 224.17056274 C-54.88189294 224.78732002 -57.19063666 225.42489068 -59.5 226.0625 C-61.89591763 226.70606393 -64.29319665 227.34438134 -66.69052124 227.98268127 C-68.27388401 228.40484163 -69.85675359 228.82885617 -71.43911743 229.25474548 C-77.39120356 230.85453764 -83.36647526 232.31435987 -89.375 233.6875 C-96.49085461 235.34027947 -103.53422089 237.19448688 -110.5625 239.1875 C-111.89450439 239.56297974 -111.89450439 239.56297974 -113.25341797 239.94604492 C-114.49115967 240.30339722 -114.49115967 240.30339722 -115.75390625 240.66796875 C-116.47908447 240.87703857 -117.2042627 241.0861084 -117.95141602 241.30151367 C-120.08292906 242.02827554 -122.01093496 242.94877703 -124 244 C-108.1491125 244.74873539 -92.30160685 245.17248422 -76.4375 245.5 C-60.94753808 245.8198442 -45.47519062 246.22541644 -30 247 C-30.33 247.66 -30.66 248.32 -31 249 C-32.08692642 249.01030746 -33.17385284 249.02061493 -34.29371643 249.03123474 C-44.54874294 249.12909088 -54.80371043 249.2318362 -65.05864048 249.33933926 C-70.33049556 249.39444808 -75.60235629 249.44784845 -80.87426758 249.49731445 C-85.96417339 249.54513607 -91.05401454 249.59748459 -96.1438427 249.65294075 C-98.08342816 249.67328389 -100.02303131 249.69200985 -101.96264839 249.70907402 C-104.68422945 249.73329689 -107.40569026 249.76332584 -110.12719727 249.79467773 C-110.92489532 249.8004332 -111.72259338 249.80618866 -112.54446411 249.81211853 C-117.12165219 249.87185345 -121.48239609 250.25280372 -126 251 C-122.16866718 253.21814005 -118.00224851 254.16795266 -113.75 255.25 C-112.91863525 255.46470947 -112.08727051 255.67941895 -111.23071289 255.90063477 C-108.488556 256.60607858 -105.74445656 257.30356032 -103 258 C-101.60467041 258.35650635 -101.60467041 258.35650635 -100.18115234 258.72021484 C-87.49058896 261.95846662 -74.76867493 265.02736193 -61.99194336 267.90795898 C-56.07485331 269.2505947 -50.26274927 270.7416519 -44.46606445 272.5402832 C-40.91126853 273.20295826 -38.1691573 272.78274091 -35.15625 270.765625 C-34.6096875 270.26546875 -34.063125 269.7653125 -33.5 269.25 C-32.9534375 268.76015625 -32.406875 268.2703125 -31.84375 267.765625 C-29.5260921 265.54617295 -27.2673728 263.27076707 -25 261 C-24.12859375 260.16339844 -23.2571875 259.32679688 -22.359375 258.46484375 C-21.49828125 257.63082031 -20.6371875 256.79679687 -19.75 255.9375 C-18.87859375 255.10089844 -18.0071875 254.26429688 -17.109375 253.40234375 C-15.01810641 251.02062118 -14.2971796 250.07683364 -14 247 C-15.0338331 245.25969219 -15.0338331 245.25969219 -16.71875 243.7578125 C-17.32203125 243.16613281 -17.9253125 242.57445312 -18.546875 241.96484375 C-19.19140625 241.35769531 -19.8359375 240.75054687 -20.5 240.125 C-21.11359375 239.52558594 -21.7271875 238.92617187 -22.359375 238.30859375 C-28.87486849 230.91876229 -28.87486849 230.91876229 -37 227 C-37.495 225.515 -37.495 225.515 -38 224 C-42.33312396 221.34319039 -45.78890285 222.2853125 -50.40625 223.59765625 Z M-170.3125 226.6875 C-171.03945068 226.96078125 -171.76640137 227.2340625 -172.51538086 227.515625 C-177.70331653 229.4791522 -182.83297319 231.5561569 -187.94140625 233.71875 C-191.44503542 235.18642608 -194.97021616 236.59682841 -198.5 238 C-205.02912348 240.59789681 -211.52310798 243.27415718 -218 246 C-218 246.99 -218 247.98 -218 249 C-205.92421123 255.91234805 -193.70426731 262.11525767 -180.98828125 267.76171875 C-175.88754398 270.02860614 -170.90909852 272.47775511 -165.94921875 275.0390625 C-164.21271392 276.07369561 -164.21271392 276.07369561 -163 276 C-161.73515325 258.67611679 -161.8990199 241.35770174 -162 224 C-164.7176505 224 -167.75578926 225.72426192 -170.3125 226.6875 Z M18.57397461 236.56958008 C13.97610305 241.25656875 13.97610305 241.25656875 11 247 C12.15339546 248.87066934 12.15339546 248.87066934 13.9375 250.6875 C14.5871875 251.39003906 15.236875 252.09257812 15.90625 252.81640625 C16.5971875 253.53699219 17.288125 254.25757813 18 255 C18.97453125 256.03447266 18.97453125 256.03447266 19.96875 257.08984375 C25.17261237 262.46923323 30.78424636 266.85616424 37 271 C39.77139302 270.7681541 39.77139302 270.7681541 43 270 C44.3799989 269.73710969 45.76049171 269.47680445 47.14135742 269.21850586 C59.27452849 266.84651077 71.31586046 264.15263164 83.33813477 261.27319336 C86.32589031 260.55930053 89.31614435 259.85660855 92.30664062 259.15429688 C110.37813721 256.05409208 110.37813721 256.05409208 126 248 C106.61421041 247.92531387 87.24331628 248.11710868 67.86114502 248.46356201 C63.03659556 248.5493733 58.21198781 248.63183602 53.38737488 248.71398926 C50.843016 248.75753137 48.29867252 248.80198655 45.75434875 248.84753418 C39.50166359 248.95636745 33.25363061 249.02336714 27 249 C27 248.01 27 247.02 27 246 C47.80215918 244.80389326 68.58723184 243.77520224 89.42089844 243.34204102 C90.50079544 243.31758408 90.50079544 243.31758408 91.60250854 243.29263306 C93.53164189 243.24941072 95.46088759 243.21128546 97.39013672 243.17358398 C101.31153103 242.98501971 105.11162524 242.53193824 109 242 C109 241.67 109 241.34 109 241 C107.79279297 240.75354736 106.58558594 240.50709473 105.34179688 240.25317383 C100.74873627 239.31536908 96.15582074 238.37685521 91.56292725 237.43823242 C88.50965762 236.81447298 85.4562468 236.1914079 82.40283203 235.56835938 C65.37352876 232.09059094 65.37352876 232.09059094 57.0859375 230.32421875 C55.46461914 229.97943481 55.46461914 229.97943481 53.81054688 229.62768555 C51.9332387 229.22627509 50.05683413 228.82059978 48.18164062 228.40942383 C33.93382649 225.36605291 28.69903397 225.90451755 18.57397461 236.56958008 Z M-8 266 C-9.80745398 267.94586262 -11.54640526 269.93006757 -13.2578125 271.9609375 C-14.37866643 273.27278896 -15.53839366 274.55287959 -16.7421875 275.7890625 C-17.55042969 276.63597656 -17.55042969 276.63597656 -18.375 277.5 C-19.09816406 278.22703125 -19.09816406 278.22703125 -19.8359375 278.96875 C-23.40621949 285.19877226 -21.72187861 292.30439415 -20.375 298.9375 C-20.19114746 299.89350098 -20.00729492 300.84950195 -19.81787109 301.83447266 C-19.22568271 304.89254339 -18.61507443 307.94645618 -18 311 C-17.60931022 312.95701832 -17.21868481 314.91404949 -16.828125 316.87109375 C-16.22241844 319.89962654 -15.61432048 322.92759694 -14.99975586 325.9543457 C-13.77377031 332.01737616 -12.60290274 338.08758395 -11.48828125 344.171875 C-11.29483124 345.22334213 -11.29483124 345.22334213 -11.09747314 346.29605103 C-10.46784695 349.7206572 -9.84418481 353.14615053 -9.23095703 356.57373047 C-7.58947677 365.53295482 -5.46709924 374.23832454 -3 383 C-0.49286315 379.09316521 -0.34990666 374.79221142 0.0546875 370.2890625 C0.13733856 369.41134186 0.21998962 368.53362122 0.30514526 367.62930298 C1.29151448 356.56392365 1.72459025 345.47430892 2.125 334.375 C2.16669312 333.26012207 2.20838623 332.14524414 2.25134277 330.99658203 C2.84172145 314.99885716 3.2069975 299.00865751 3.25 283 C3.25517639 282.10287292 3.26035278 281.20574585 3.26568604 280.28143311 C3.2772569 277.77078722 3.27434935 275.26064794 3.265625 272.75 C3.26958282 272.01705719 3.27354065 271.28411438 3.27761841 270.52896118 C3.2438195 266.85890325 3.02417262 264.11967816 1 261 C-3.20143278 261 -5.11834185 263.21260169 -8 266 Z M8 271 C8.00523682 272.01610352 8.01047363 273.03220703 8.01586914 274.07910156 C8.12255652 296.80909211 8.0456104 319.30961821 5.66064453 341.93945312 C5.17030474 346.65932125 4.903936 351.25443836 5 356 C6.78588973 352.75576364 7.75472721 349.57914627 8.6875 346 C8.85121094 345.37262939 9.01492188 344.74525879 9.18359375 344.09887695 C9.79625728 341.73437864 10.39867737 339.36740849 11 337 C11.26506348 335.96020996 11.53012695 334.92041992 11.80322266 333.84912109 C14.77250079 322.17306207 17.72678447 310.48926945 20.4375 298.75 C20.60121094 298.06703857 20.76492188 297.38407715 20.93359375 296.68041992 C22.12333794 291.38831559 23.38325958 285.57311508 20.71484375 280.609375 C20.12832031 279.99578125 19.54179687 279.3821875 18.9375 278.75 C18.36902344 278.12609375 17.80054688 277.5021875 17.21484375 276.859375 C15.29121011 275.24447268 13.53736182 274.1030782 11.36157227 272.88378906 C10.25225342 272.26213867 9.14293457 271.64048828 8 271 Z M-79 274 C-80.42501367 278.275041 -78.53625505 280.98726842 -76.75 284.875 C-76.43675781 285.58269531 -76.12351563 286.29039062 -75.80078125 287.01953125 C-74.08674876 290.83876547 -72.24964501 294.45889211 -70 298 C-65.86360664 296.40907948 -62.76786752 293.39525082 -60 290 C-60 289.34 -60 288.68 -60 288 C-59.34 288 -58.68 288 -58 288 C-56.3553326 285.53673288 -56.3553326 285.53673288 -55 283 C-60.48385362 280.39053342 -65.91757403 278.32489712 -71.7578125 276.66015625 C-74.24379733 275.92821995 -76.62248795 275.03025522 -79 274 Z M69.89453125 277.09375 C68.91162109 277.31933594 67.92871094 277.54492188 66.91601562 277.77734375 C65.37977539 278.13505859 65.37977539 278.13505859 63.8125 278.5 C62.25885742 278.85771484 62.25885742 278.85771484 60.67382812 279.22265625 C58.11520019 279.81220186 55.5573085 280.40476167 53 281 C55.49305881 285.67162626 57.88686666 289.24479901 61.75 292.9375 C62.94882812 294.09572266 62.94882812 294.09572266 64.171875 295.27734375 C64.77515625 295.84582031 65.3784375 296.41429687 66 297 C69.23353762 295.65607679 70.6010349 294.54973575 72.140625 291.41015625 C72.48867188 290.70826172 72.83671875 290.00636719 73.1953125 289.28320312 C73.54335938 288.55037109 73.89140625 287.81753906 74.25 287.0625 C74.61351562 286.33353516 74.97703125 285.60457031 75.3515625 284.85351562 C77.45815027 280.63542066 77.45815027 280.63542066 78 276 C75.05988126 276 72.74962062 276.43361373 69.89453125 277.09375 Z M-37 301 C-38.82537533 302.71711584 -40.63454827 304.44710422 -42.4375 306.1875 C-42.95376953 306.67025391 -43.47003906 307.15300781 -44.00195312 307.65039062 C-47.05422078 310.62286043 -48.69288658 312.69253741 -49 317 C-46.2118978 318.5066972 -43.41896042 320.00419804 -40.625 321.5 C-39.8309375 321.92925781 -39.036875 322.35851562 -38.21875 322.80078125 C-37.07792969 323.40986328 -37.07792969 323.40986328 -35.9140625 324.03125 C-35.2123291 324.40830078 -34.5105957 324.78535156 -33.78759766 325.17382812 C-32.02563289 326.13984328 -32.02563289 326.13984328 -30 326 C-29.71107698 320.26715899 -30.69752791 315.59092029 -32.375 310.125 C-32.59671875 309.35414063 -32.8184375 308.58328125 -33.046875 307.7890625 C-33.63081362 305.83802052 -34.30839897 303.91552528 -35 302 C-35.66 301.67 -36.32 301.34 -37 301 Z M33 301 C27.40437729 313.13926289 27.40437729 313.13926289 25 326 C34.15881171 325.3339046 41.20686102 321.64272109 49 317 C46.60339632 310.76883042 42.11334206 306.20942371 37 302 C34.83873873 301.20228573 34.83873873 301.20228573 33 301 Z M8.6875 414.9375 C-5.05809194 416.88010983 -19.14000412 416.6898145 -33 417 C-25.68726739 435.46464984 -16.67173176 452.66791432 -7 470 C-3.9786288 469.33624124 -3.9786288 469.33624124 -2.91601562 467.35546875 C-2.58279297 466.64003906 -2.24957031 465.92460937 -1.90625 465.1875 C-1.52090088 464.37120117 -1.13555176 463.55490234 -0.73852539 462.71386719 C-0.32981201 461.81829102 0.07890137 460.92271484 0.5 460 C0.92998291 459.07606445 1.35996582 458.15212891 1.80297852 457.20019531 C3.21801527 454.1405188 4.61210798 451.07208087 6 448 C6.49226074 446.91138672 6.98452148 445.82277344 7.49169922 444.70117188 C8.98309828 441.38824257 10.46341016 438.07066475 11.9375 434.75 C12.39769531 433.71617187 12.85789062 432.68234375 13.33203125 431.6171875 C15.87734483 425.81869206 18.1009587 420.04183437 20 414 C16.11376258 413.89184868 12.52504175 414.34209432 8.6875 414.9375 Z " fill="#000000" transform="translate(259,8)"/>
</svg>
